<svg width="22" height="22" viewBox="0 0 22 22" fill="none" xmlns="http://www.w3.org/2000/svg">
<g clip-path="url(#clip0)">
<path d="M16.0942 4.70572V3.67125C16.0942 2.80784 15.3968 2.10547 14.5396 2.10547H1.5547C0.697426 2.10547 0 2.80788 0 3.67125V5.26621C0 6.0598 0.589316 6.71687 1.35029 6.81802C1.24953 7.15236 1.27355 7.29042 1.27355 8.47339C1.27355 8.91129 1.43009 9.31296 1.68949 9.62496C1.43009 9.93695 1.27355 10.3386 1.27355 10.7765C1.27355 11.9451 1.24532 12.11 1.36207 12.4689C0.581453 12.6599 0 13.3696 0 14.2141V15.3484C0 16.3388 0.799691 17.1445 1.78264 17.1445H8.56947C9.96591 18.8247 12.0583 19.8945 14.3935 19.8945C18.5877 19.8945 22 16.4442 22 12.2031C22 8.55306 19.4724 5.48887 16.0942 4.70572V4.70572ZM1.5547 5.54297C1.40821 5.54297 1.28906 5.41879 1.28906 5.26625V3.67125C1.28906 3.51871 1.40821 3.39453 1.5547 3.39453H14.5396C14.686 3.39453 14.8052 3.51871 14.8052 3.67125V4.52306C13.2742 4.44013 11.8263 4.82011 10.5924 5.54293C10.2539 5.54297 2.38747 5.54297 1.5547 5.54297ZM6.79018 12.418H3.0562C2.78403 12.418 2.56261 12.1905 2.56261 11.9109V10.7766C2.56261 10.497 2.78403 10.2695 3.0562 10.2695H7.03063C6.8539 10.957 6.76994 11.6765 6.79018 12.418ZM3.05615 8.98047C2.78399 8.98047 2.56257 8.75304 2.56257 8.47344V7.33906C2.56257 7.05946 2.78399 6.83203 3.05615 6.83203H8.95469C8.35274 7.45512 7.85439 8.18078 7.48791 8.98047H3.05615ZM1.78264 15.8555C1.51048 15.8555 1.28906 15.628 1.28906 15.3484V14.2141C1.28906 13.9345 1.51048 13.707 1.78264 13.707H6.93348C7.08357 14.4695 7.34516 15.1918 7.70082 15.8555H1.78264ZM14.3935 18.6055C10.9101 18.6055 8.07615 15.7334 8.07615 12.2031C8.07615 8.67286 10.9102 5.80078 14.3935 5.80078C17.8769 5.80078 20.7109 8.67286 20.7109 12.2031C20.7109 15.7334 17.8769 18.6055 14.3935 18.6055V18.6055Z" fill="#B4B8D7"/>
<path d="M15.5041 11.5578C15.406 11.5227 15.3063 11.4863 15.2064 11.4489V9.56712C15.5468 9.71369 15.5851 9.89695 15.9155 9.89695C16.4999 9.89695 16.7787 9.18178 16.3569 8.78423C16.3632 8.77744 15.9365 8.37379 15.2064 8.22224V7.90625C15.2064 7.5503 14.9178 7.26172 14.5618 7.26172C14.2059 7.26172 13.9173 7.5503 13.9173 7.90625V8.26676C12.2537 8.72008 11.8894 10.8792 13.0145 11.7724C13.2504 11.9597 13.5366 12.1315 13.9173 12.3094V14.8469C13.6708 14.8046 13.4747 14.7107 13.1723 14.5105C12.8755 14.314 12.4756 14.3953 12.2791 14.6921C12.0825 14.9889 12.1638 15.3888 12.4607 15.5853C13.0125 15.9507 13.4166 16.0946 13.9174 16.1446V16.5C13.9174 16.856 14.2059 17.1445 14.5619 17.1445C14.9178 17.1445 15.2064 16.856 15.2064 16.5V16.0831C17.3785 15.5057 17.7766 12.3708 15.5041 11.5578ZM13.9174 10.8372C13.8819 10.8127 13.8477 10.7879 13.8161 10.7629C13.5852 10.5796 13.59 10.0189 13.9174 9.69732V10.8372ZM15.2064 14.6865V12.8286C16.0173 13.2196 15.8301 14.2705 15.2064 14.6865Z" fill="#B4B8D7"/>
</g>
<defs>
<clipPath id="clip0">
<rect width="22" height="22" fill="white"/>
</clipPath>
</defs>
</svg>
