<svg width="22" height="22" viewBox="0 0 22 22" fill="none" xmlns="http://www.w3.org/2000/svg">
<g clip-path="url(#clip0)">
<path d="M1.375 19.9375V2.06251C1.375 1.6828 1.68279 1.37501 2.0625 1.37501H12.375V4.12501C12.375 4.8844 12.9906 5.50001 13.75 5.50001H16.5V7.56251H17.875V4.81251C17.8761 4.62976 17.8043 4.45411 17.6756 4.32439L13.5506 0.199386C13.4209 0.0706946 13.2452 -0.00102028 13.0625 1.09699e-05H2.0625C0.923398 1.09699e-05 0 0.923452 0 2.06251V19.9375C0 21.0766 0.923398 22 2.0625 22H6.875V20.625H2.0625C1.68283 20.625 1.375 20.3172 1.375 19.9375Z" fill="#B4B8D7"/>
<path d="M19.25 11C17.7312 11 16.5 12.2312 16.5 13.75V15.125C16.5 16.6438 17.7312 17.875 19.25 17.875C20.7688 17.875 22 16.6438 22 15.125V13.75C22 12.2312 20.7688 11 19.25 11ZM20.625 15.125C20.625 15.8844 20.0094 16.5 19.25 16.5C18.4906 16.5 17.875 15.8844 17.875 15.125V13.75C17.875 12.9906 18.4906 12.375 19.25 12.375C20.0094 12.375 20.625 12.9906 20.625 13.75V15.125Z" fill="#B4B8D7"/>
<path d="M13.0625 12.375C13.8219 12.375 14.4375 12.9906 14.4375 13.75H15.8125C15.8125 12.2312 14.5813 11 13.0625 11C11.5437 11 10.3125 12.2312 10.3125 13.75V15.125C10.3125 16.6438 11.5437 17.875 13.0625 17.875C14.5813 17.875 15.8125 16.6438 15.8125 15.125H14.4375C14.4375 15.8844 13.8219 16.5 13.0625 16.5C12.3031 16.5 11.6875 15.8844 11.6875 15.125V13.75C11.6875 12.9906 12.3031 12.375 13.0625 12.375Z" fill="#B4B8D7"/>
<path d="M9.625 11H8.25V17.875H9.625V11Z" fill="#B4B8D7"/>
</g>
<defs>
<clipPath id="clip0">
<rect width="22" height="22" fill="white"/>
</clipPath>
</defs>
</svg>
