<svg width="20" height="20" viewBox="0 0 20 20" fill="none" xmlns="http://www.w3.org/2000/svg">
<g clip-path="url(#clip0_347_1189)">
<path d="M0.574447 4.30515C0.249779 4.28986 0 4.01018 0 3.68515V0.603622C0 0.270262 0.270262 0 0.603622 0H3.68515C4.01018 0 4.28986 0.249779 4.30515 0.574447C4.32149 0.921086 4.04527 1.20724 3.70221 1.20724H1.36821C1.27932 1.20724 1.20724 1.27932 1.20724 1.36821V3.70221C1.20724 4.04527 0.921086 4.32149 0.574447 4.30515Z" fill="#6CBFF8"/>
<path d="M3.70221 19.9992H0.603622C0.270262 19.9992 0 19.7289 0 19.3956V16.3141C0 15.989 0.249779 15.7093 0.574447 15.694C0.921087 15.6777 1.20724 15.9539 1.20724 16.297V18.631C1.20724 18.7199 1.27932 18.792 1.36821 18.792H3.68515C4.01018 18.792 4.28986 19.0417 4.30515 19.3664C4.32149 19.7131 4.04527 19.9992 3.70221 19.9992Z" fill="#6CBFF8"/>
<path d="M19.3674 4.30515C19.0427 4.28986 18.7929 4.01018 18.7929 3.68515V1.36821C18.7929 1.27932 18.7209 1.20724 18.632 1.20724H16.315C15.99 1.20724 15.7103 0.957465 15.695 0.632797C15.6787 0.286157 15.9549 0 16.298 0H19.3966C19.7299 0 20.0002 0.270262 20.0002 0.603622V3.70221C20.0002 4.04527 19.714 4.32149 19.3674 4.30515Z" fill="#6CBFF8"/>
<path d="M19.3966 19.9992H16.315C15.99 19.9992 15.7103 19.7494 15.695 19.4248C15.6787 19.0781 15.9549 18.792 16.298 18.792H18.632C18.7209 18.792 18.7929 18.7199 18.7929 18.631V16.3141C18.7929 15.989 19.0427 15.7093 19.3674 15.694C19.714 15.6777 20.0002 15.9539 20.0002 16.297V19.3956C20.0002 19.7289 19.7299 19.9992 19.3966 19.9992Z" fill="#6CBFF8"/>
<path d="M17.0595 15.9438C16.9838 15.9438 16.907 15.9295 16.8326 15.8993C16.5237 15.774 16.375 15.4219 16.5003 15.113C17.1254 13.5732 17.4433 11.944 17.4452 10.2704C17.4422 8.31816 16.6863 6.47349 15.316 5.07486C15.0827 4.83675 15.0866 4.45458 15.3248 4.22126C15.5628 3.98798 15.945 3.99188 16.1784 4.23003C17.7651 5.84955 18.6428 7.98436 18.6524 10.2448C18.6524 10.2481 18.6525 10.2514 18.6525 10.2547V10.2823C18.6525 10.2847 18.6525 10.2871 18.6524 10.2894C18.6481 12.1128 18.3004 13.8882 17.6189 15.5671C17.5238 15.8016 17.2978 15.9438 17.0595 15.9438Z" fill="#FFD064"/>
<path d="M6.40501 3.68472C6.1838 3.68472 5.97081 3.56271 5.86493 3.35152C5.71552 3.0535 5.836 2.6908 6.13403 2.54138C7.34175 1.93591 8.64243 1.62891 9.99986 1.62891C11.0215 1.62891 12.0225 1.80621 12.9748 2.15591C13.2877 2.2708 13.4483 2.61768 13.3334 2.9306C13.2184 3.24356 12.8715 3.40396 12.5587 3.28919C11.74 2.98855 10.8791 2.83615 9.99986 2.83615C8.83197 2.83615 7.71334 3.10009 6.67507 3.62058C6.58827 3.66408 6.49592 3.68472 6.40501 3.68472Z" fill="#FFD064"/>
<path d="M1.95079 10.8861C1.61743 10.8861 1.34717 10.6158 1.34717 10.2824C1.34717 8.00795 2.22592 5.8585 3.82149 4.23001C4.05481 3.99186 4.43695 3.98799 4.67509 4.22131C4.9132 4.45459 4.91711 4.83677 4.68379 5.07492C3.31063 6.47636 2.55441 8.32578 2.55441 10.2824C2.55441 10.6158 2.28419 10.8861 1.95079 10.8861Z" fill="#FFD064"/>
<path d="M5.98268 17.8498C5.77467 17.8498 5.57225 17.7422 5.46022 17.5494C5.29274 17.2611 5.39064 16.8917 5.67889 16.7242C7.97198 15.3917 9.39649 12.923 9.39649 10.2814C9.39649 9.948 9.66675 9.67773 10.0001 9.67773C10.3335 9.67773 10.6037 9.948 10.6037 10.2814C10.6037 11.8227 10.1914 13.3372 9.41134 14.661C8.65484 15.9449 7.57391 17.0193 6.28541 17.768C6.18996 17.8234 6.08566 17.8498 5.98268 17.8498Z" fill="#FFD064"/>
<path d="M9.03008 18.8526C8.86674 18.8526 8.70396 18.7867 8.58493 18.6569C8.35966 18.4111 8.37628 18.0293 8.62203 17.804C9.3898 17.1003 10.0432 16.2877 10.564 15.389C10.731 15.1005 11.1004 15.0022 11.3889 15.1693C11.6773 15.3365 11.7756 15.7058 11.6085 15.9943C11.0263 16.9991 10.2959 17.9074 9.43781 18.694C9.32191 18.8002 9.17579 18.8526 9.03008 18.8526Z" fill="#FFD064"/>
<path d="M3.73247 15.9437C3.47484 15.9437 3.23621 15.7775 3.15605 15.5184C3.0575 15.2 3.23573 14.8619 3.55424 14.7633C5.5317 14.1513 6.86032 12.3505 6.86032 10.2823C6.86032 8.55103 8.26877 7.14258 9.99999 7.14258C11.7312 7.14258 13.1397 8.55103 13.1397 10.2823C13.1397 11.3076 13.0035 12.3245 12.7349 13.3045C12.6468 13.626 12.3147 13.8151 11.9932 13.7272C11.6717 13.6391 11.4825 13.307 11.5706 12.9854C11.8107 12.1093 11.9324 11.1999 11.9324 10.2823C11.9324 9.2167 11.0655 8.34982 9.99995 8.34982C8.9344 8.34982 8.06752 9.2167 8.06752 10.2823C8.06752 11.5658 7.66064 12.7868 6.89078 13.8133C6.14704 14.8052 5.08881 15.5521 3.9111 15.9166C3.8517 15.935 3.79158 15.9437 3.73247 15.9437Z" fill="#FFD064"/>
<path d="M13.1095 18.2728C12.9964 18.2728 12.8822 18.241 12.7804 18.1747C12.5011 17.9927 12.4223 17.6187 12.6044 17.3394C13.5488 15.8907 14.1818 14.2919 14.486 12.5876C14.5445 12.2593 14.8585 12.0407 15.1862 12.0993C15.5144 12.1579 15.733 12.4714 15.6744 12.7996C15.3416 14.6643 14.649 16.4136 13.6157 17.9986C13.4999 18.1762 13.3067 18.2728 13.1095 18.2728Z" fill="#FFD064"/>
<path d="M15.2578 10.2817C14.955 10.2818 14.6939 10.0544 14.6588 9.74634C14.389 7.37801 12.3863 5.59201 10.0001 5.59201C9.26742 5.59201 8.56553 5.75696 7.91386 6.08227C7.61563 6.23104 7.25306 6.11004 7.1042 5.81177C6.95531 5.5135 7.07644 5.151 7.37471 5.00211C8.19527 4.59245 9.07861 4.38477 10.0001 4.38477C11.4555 4.38477 12.8541 4.92147 13.9382 5.89599C15.0137 6.8628 15.6956 8.18171 15.8583 9.60976C15.896 9.94095 15.6581 10.2401 15.3269 10.2778C15.3037 10.2805 15.2806 10.2817 15.2578 10.2817Z" fill="#FFD064"/>
<path d="M2.17149 13.422C1.83813 13.422 1.56787 13.1517 1.56787 12.8184C1.56787 12.485 1.83813 12.2147 2.17149 12.2147C3.23705 12.2147 4.10393 11.3479 4.10393 10.2823C4.10393 9.2955 4.35375 8.31816 4.82634 7.4561C4.98663 7.16379 5.35355 7.05679 5.64582 7.21699C5.93814 7.37723 6.04522 7.74415 5.88494 8.03646C5.50956 8.72117 5.31113 9.49775 5.31113 10.2823C5.31113 12.0135 3.90268 13.422 2.17149 13.422Z" fill="#FFD064"/>
<path d="M8.36044 1.78516C8.03448 2.26765 7.74233 2.76423 7.48599 3.27328C7.21074 3.37268 6.94032 3.48857 6.67513 3.62177C6.58821 3.66523 6.49605 3.68616 6.40511 3.68616C6.18378 3.68616 5.9709 3.56383 5.86507 3.35296C5.71537 3.05477 5.8361 2.6922 6.13388 2.5425C6.84615 2.18556 7.59102 1.93244 8.36044 1.78516Z" fill="#FFC250"/>
<path d="M1.95079 10.8861C1.61743 10.8861 1.34717 10.6158 1.34717 10.2824C1.34717 8.00795 2.22592 5.8585 3.82149 4.23001C4.05481 3.99186 4.43695 3.98799 4.67509 4.22131C4.9132 4.45459 4.91711 4.83677 4.68379 5.07492C3.31063 6.47636 2.55441 8.32578 2.55441 10.2824C2.55441 10.6158 2.28419 10.8861 1.95079 10.8861Z" fill="#FFC250"/>
<path d="M8.61543 15.795C7.96312 16.5821 7.17358 17.2529 6.28545 17.7688C6.19008 17.8243 6.08585 17.8509 5.98283 17.8509C5.77479 17.8509 5.57237 17.7431 5.4601 17.5503C5.29269 17.2622 5.39088 16.8928 5.67901 16.7249C6.56513 16.2099 7.32127 15.5254 7.91603 14.7266C8.13052 15.0899 8.36392 15.4465 8.61543 15.795Z" fill="#FFC250"/>
<path d="M10.3248 17.7881C10.0472 18.106 9.75139 18.409 9.43831 18.6959C9.32241 18.8021 9.17633 18.8545 9.03066 18.8545C8.86728 18.8545 8.7043 18.7885 8.58518 18.6589C8.36023 18.413 8.37673 18.0311 8.62261 17.8058C8.93207 17.5221 9.22301 17.2203 9.49384 16.9023C9.75662 17.205 10.0339 17.5003 10.3248 17.7881Z" fill="#FFC250"/>
<path d="M7.20596 13.3504C7.10898 13.5094 7.00395 13.6643 6.89087 13.8148C6.14681 14.8067 5.08886 15.5536 3.91099 15.9178C3.85184 15.9363 3.79148 15.9452 3.73232 15.9452C3.47478 15.9452 3.23615 15.779 3.15607 15.5198C3.05747 15.2015 3.23574 14.8635 3.55405 14.7649C5.04419 14.3037 6.16612 13.1673 6.62809 11.75C6.78222 12.2941 6.97578 12.8281 7.20596 13.3504Z" fill="#FFC250"/>
<path d="M2.17149 13.422C1.83813 13.422 1.56787 13.1517 1.56787 12.8184C1.56787 12.485 1.83813 12.2147 2.17149 12.2147C3.23705 12.2147 4.10393 11.3479 4.10393 10.2823C4.10393 9.2955 4.35375 8.31816 4.82634 7.4561C4.98663 7.16379 5.35355 7.05679 5.64582 7.21699C5.93814 7.37723 6.04522 7.74415 5.88494 8.03647C5.50956 8.72118 5.31113 9.49776 5.31113 10.2823C5.31113 12.0135 3.90268 13.422 2.17149 13.422Z" fill="#FFC250"/>
</g>
<defs>
<clipPath id="clip0_347_1189">
<rect width="20" height="20" fill="white"/>
</clipPath>
</defs>
</svg>
