<svg width="20" height="20" viewBox="0 0 20 20" fill="none" xmlns="http://www.w3.org/2000/svg">
<path d="M17.5391 10.4011V3.90734C17.5382 3.1412 17.2335 2.40669 16.6917 1.86494C16.15 1.3232 15.4155 1.01846 14.6493 1.01758H2.88977C2.12362 1.01845 1.3891 1.32318 0.847352 1.86493C0.305604 2.40668 0.000868461 3.1412 0 3.90734V13.6633C0.00086848 14.4294 0.305605 15.1639 0.847354 15.7057C1.3891 16.2474 2.12362 16.5522 2.88977 16.553H11.4329C11.7649 17.1849 12.241 17.7296 12.8228 18.1432C13.4045 18.5568 14.0755 18.8275 14.7813 18.9334C15.4872 19.0393 16.208 18.9775 16.8855 18.7529C17.563 18.5283 18.1781 18.1473 18.6809 17.6407C19.1837 17.1341 19.5601 16.5162 19.7796 15.8371C19.9992 15.1579 20.0556 14.4366 19.9444 13.7316C19.8332 13.0265 19.5575 12.3576 19.1396 11.779C18.7217 11.2003 18.1734 10.7283 17.5391 10.4011ZM14.6491 2.26758C14.8795 2.26744 15.1073 2.31617 15.3174 2.41055L8.76953 7.96567L2.22141 2.41055C2.43158 2.31617 2.65938 2.26744 2.88977 2.26758H14.6491ZM2.88977 15.303C2.45503 15.3025 2.03824 15.1296 1.73083 14.8222C1.42342 14.5148 1.2505 14.098 1.25 13.6633V3.90734C1.24992 3.70605 1.28711 3.50647 1.35969 3.31871L8.36508 9.26192C8.47801 9.35771 8.62129 9.41029 8.76938 9.41029C8.91746 9.41029 9.06074 9.35771 9.17367 9.26192L16.1792 3.31871C16.2518 3.50646 16.2891 3.70604 16.2891 3.90734V9.97137C15.5608 9.83562 14.8103 9.87993 14.1031 10.1005C13.3958 10.321 12.7532 10.711 12.2311 11.2366C11.7091 11.7622 11.3234 12.4075 11.1076 13.1162C10.8919 13.8249 10.8527 14.5757 10.9933 15.303H2.88977ZM15.4552 17.7341C14.8035 17.7341 14.1665 17.5408 13.6247 17.1788C13.0829 16.8168 12.6606 16.3022 12.4112 15.7001C12.1618 15.0981 12.0966 14.4356 12.2237 13.7965C12.3508 13.1573 12.6646 12.5703 13.1254 12.1095C13.5862 11.6487 14.1733 11.3349 14.8124 11.2078C15.4515 11.0806 16.114 11.1459 16.7161 11.3953C17.3181 11.6446 17.8327 12.0669 18.1947 12.6088C18.5568 13.1506 18.75 13.7876 18.75 14.4393C18.749 15.3128 18.4016 16.1503 17.7839 16.768C17.1662 17.3856 16.3287 17.7331 15.4552 17.7341ZM17.6631 13.7575L15.4155 16.0051C15.2983 16.1223 15.1393 16.1881 14.9736 16.1881C14.8078 16.1881 14.6489 16.1223 14.5316 16.0051L13.2473 14.7207C13.1893 14.6627 13.1432 14.5938 13.1118 14.518C13.0804 14.4422 13.0642 14.3609 13.0642 14.2788C13.0642 14.1967 13.0804 14.1154 13.1118 14.0396C13.1432 13.9638 13.1892 13.8949 13.2472 13.8368C13.3053 13.7788 13.3742 13.7327 13.45 13.7013C13.5258 13.6699 13.6071 13.6537 13.6892 13.6537C13.7713 13.6537 13.8526 13.6699 13.9284 13.7013C14.0042 13.7327 14.0731 13.7787 14.1312 13.8368L14.9736 14.6792L16.7792 12.8735C16.8967 12.7575 17.0553 12.6926 17.2204 12.6931C17.3855 12.6936 17.5437 12.7594 17.6604 12.8762C17.7772 12.9929 17.843 13.1511 17.8435 13.3162C17.844 13.4813 17.7791 13.6399 17.6631 13.7574V13.7575Z" fill="#FE9111"/>
</svg>
