<svg width="20" height="20" viewBox="0 0 20 20" fill="none" xmlns="http://www.w3.org/2000/svg">
<path d="M7.65625 10.5469C7.97984 10.5469 8.24219 10.2845 8.24219 9.96094C8.24219 9.63734 7.97984 9.375 7.65625 9.375H5.3125C4.98891 9.375 4.72656 9.63734 4.72656 9.96094C4.72656 10.2845 4.98891 10.5469 5.3125 10.5469H7.65625ZM8.24219 11.7188H5.89844C5.57484 11.7188 5.3125 11.9811 5.3125 12.3047C5.3125 12.6283 5.57484 12.8906 5.89844 12.8906H8.24219C8.56578 12.8906 8.82812 12.6283 8.82812 12.3047C8.82812 11.9811 8.56578 11.7188 8.24219 11.7188ZM14.1016 5.90141V1.75781C14.1016 0.788555 13.313 0 12.3438 0H4.14062C3.17137 0 2.38281 0.788555 2.38281 1.75781V18.2422C2.38281 19.2114 3.17137 20 4.14062 20H12.3438C13.313 20 14.1016 19.2114 14.1016 18.2422V14.0205C16.0866 13.7353 17.6172 12.0236 17.6172 9.96094C17.6172 7.89828 16.0866 6.1866 14.1016 5.90141ZM12.9297 18.2422C12.9297 18.5653 12.6668 18.8281 12.3438 18.8281H4.14062C3.81754 18.8281 3.55469 18.5653 3.55469 18.2422V17.6562H12.9297V18.2422ZM12.9297 16.4844H3.55469V1.75781C3.55469 1.43473 3.81754 1.17188 4.14062 1.17188H12.3438C12.6668 1.17188 12.9297 1.43473 12.9297 1.75781V5.90141C10.9447 6.1866 9.41406 7.89824 9.41406 9.96094C9.41406 12.0236 10.9447 13.7353 12.9297 14.0205V16.4844ZM13.5156 12.8906C11.9002 12.8906 10.5859 11.5764 10.5859 9.96094C10.5859 8.34559 11.9 7.03141 13.5154 7.03125H13.5156C13.5156 7.03125 13.5158 7.03125 13.5159 7.03125C15.1312 7.03141 16.4453 8.34559 16.4453 9.96094C16.4453 11.5764 15.1311 12.8906 13.5156 12.8906ZM14.2229 8.71797L13.2227 9.71824L12.8083 9.30395C12.5795 9.07512 12.2085 9.07512 11.9797 9.30395C11.7509 9.53277 11.7509 9.90375 11.9797 10.1326L12.8083 10.9612C12.9227 11.0756 13.0727 11.1329 13.2226 11.1329C13.3725 11.1329 13.5225 11.0757 13.6369 10.9612L15.0515 9.54664C15.2803 9.31781 15.2803 8.94684 15.0515 8.71801C14.8227 8.48914 14.4517 8.48914 14.2229 8.71797ZM8.82812 2.34375H7.65625C7.33266 2.34375 7.07031 2.60609 7.07031 2.92969C7.07031 3.25328 7.33266 3.51562 7.65625 3.51562H8.82812C9.15172 3.51562 9.41406 3.25328 9.41406 2.92969C9.41406 2.60609 9.15172 2.34375 8.82812 2.34375ZM8.24219 7.03125H5.89844C5.57484 7.03125 5.3125 7.29359 5.3125 7.61719C5.3125 7.94078 5.57484 8.20312 5.89844 8.20312H8.24219C8.56578 8.20312 8.82812 7.94078 8.82812 7.61719C8.82812 7.29359 8.56578 7.03125 8.24219 7.03125Z" fill="#008AB5"/>
</svg>
